<svg width="283" height="209" viewBox="0 0 283 209" fill="none" xmlns="http://www.w3.org/2000/svg">
<path d="M282.345 117.63L273.961 146.279C227.415 125.198 42.9902 176.103 6.82735 186.421L0.655157 153.051C0.654752 153.051 255.392 77.965 282.345 117.63Z" fill="#125700"/>
<path d="M9.4154 200.398L8.6625 196.334C36.2624 188.477 169.97 151.465 240.014 151.465C253.91 151.465 264.391 152.906 271.191 155.752L257.696 201.863C256.526 205.855 253.881 208.436 250.954 208.436H16.507C13.1981 208.436 10.2942 205.15 9.4154 200.398Z" fill="#125700"/>
<path d="M222.186 72.4294L225.54 96.248C205.216 97.3876 181.56 100.692 157.354 105.052V73.9792C157.354 69.8185 159.622 66.4417 162.416 66.4417H217.233C219.626 66.4417 221.696 68.9441 222.186 72.4294Z" fill="#125700"/>
<path d="M135.585 68.5521H139.027C141.096 68.5521 142.773 71.0491 142.773 74.1299V89.9586H150.468V106.312C132.709 109.641 114.796 113.476 97.8183 117.383V97.4961C97.8183 93.3354 100.086 89.9586 102.881 89.9586H106.728V83.7779C106.728 80.6972 108.406 78.2001 110.475 78.2001H120.397C122.466 78.2001 124.143 80.6972 124.143 83.7779V89.9586H131.838V74.1299C131.838 71.0491 133.516 68.5521 135.585 68.5521Z" fill="#125700"/>
<path d="M239.904 74.7269C238.07 75.0296 236.418 73.0608 236.215 70.3304L236.16 69.5923C235.957 66.8613 237.279 64.4023 239.113 64.1002L246.454 62.8894V58.754C246.454 56.0043 247.949 53.7792 249.795 53.7792H255.06C256.907 53.7792 258.401 56.0043 258.401 58.754V60.9182L275.14 58.157C276.974 57.8543 278.626 59.8231 278.829 62.5535L278.884 63.2916C279.087 66.0226 277.765 68.4816 275.931 68.7837L258.401 71.6757V96.857C256.154 96.5675 253.728 96.3324 251.111 96.1575C249.621 96.061 248.07 95.9826 246.454 95.9223C244.413 95.85 242.27 95.8138 240.019 95.8138H239.164V89.2049C239.164 86.4552 240.659 84.2302 242.505 84.2302H246.454V73.6463L239.904 74.7269Z" fill="#125700"/>
<path d="M183.577 0.563919H188.842C190.688 0.563919 192.184 2.7914 192.184 5.53867V7.70283L208.922 4.94168C210.757 4.63898 212.408 6.60778 212.611 9.33817L212.666 10.0762C212.869 12.8072 211.548 15.2663 209.713 15.5684L192.184 18.4603V34.4163H202.325C203.661 34.4163 204.816 35.8092 205.091 37.7569L207.687 56.1906H168.896V38.6192C168.896 36.2977 170.16 34.4163 171.723 34.4163H180.236V20.4316L173.687 21.5121C171.852 21.8148 170.201 19.846 169.997 17.1157L169.943 16.3776C169.739 13.6466 171.061 11.1876 172.896 10.8855L180.236 9.67463V5.53926C180.236 2.79139 181.732 0.563919 183.577 0.563919Z" fill="#125700"/>
<path d="M75.1229 62.082H68.0107V49.4793C68.0107 46.3979 69.6878 43.9015 71.7569 43.9015H81.238V31.2144C81.238 28.133 82.9151 25.6366 84.9842 25.6366H88.4267C90.4959 25.6366 92.173 28.133 92.173 31.2144V118.692C83.8097 120.651 75.7134 122.611 68.0107 124.529V117.027H75.1229C76.1759 117.027 77.03 115.755 77.03 114.187V109.61C77.03 108.043 76.1759 106.776 75.1229 106.776H68.0107V94.3244H75.1229C76.1759 94.3244 77.03 93.0521 77.03 91.4843V86.9135C77.03 85.3457 76.1759 84.0734 75.1229 84.0734H68.0107V72.333H75.1229C76.1759 72.333 77.03 71.0606 77.03 69.4928V64.9221C77.03 63.3543 76.1755 62.082 75.1229 62.082Z" fill="#125700"/>
<path d="M52.9973 109.255C56.2049 109.255 58.8051 113.126 58.8051 117.896V126.844C42.3584 131.023 28.1753 134.858 17.7623 137.746V117.896C17.7623 113.126 20.3625 109.255 23.5701 109.255H30.9605V100.538L13.4309 97.6463C11.5966 97.3436 10.2747 94.8845 10.478 92.1542L10.5327 91.4161C10.736 88.6851 12.3876 86.7169 14.2218 87.019L30.9605 89.7801V87.616C30.9605 84.8687 32.4562 82.6412 34.3017 82.6412H39.5667C41.4115 82.6412 42.908 84.8687 42.908 87.616V91.7514L50.2486 92.9622C52.0829 93.2649 53.4048 95.7239 53.2015 98.4543L53.1468 99.1924C52.9435 101.923 51.2919 103.892 49.4576 103.589L42.908 102.509V109.255H52.9973Z" fill="#125700"/>
</svg>
