<svg xmlns="http://www.w3.org/2000/svg" xmlns:xlink="http://www.w3.org/1999/xlink" id="visual" version="1.1" viewBox="0 400.62 900 200.38"><path d="M0 492L21.5 483.8C43 475.7 86 459.3 128.8 441.2C171.7 423 214.3 403 257.2 414.5C300 426 343 469 385.8 492C428.7 515 471.3 518 514.2 503.2C557 488.3 600 455.7 642.8 433C685.7 410.3 728.3 397.7 771.2 401.2C814 404.7 857 424.3 878.5 434.2L900 444L900 601L878.5 601C857 601 814 601 771.2 601C728.3 601 685.7 601 642.8 601C600 601 557 601 514.2 601C471.3 601 428.7 601 385.8 601C343 601 300 601 257.2 601C214.3 601 171.7 601 128.8 601C86 601 43 601 21.5 601L0 601Z" fill="#4C005E" stroke-linecap="round" stroke-linejoin="miter"/></svg>