<svg id="visual" viewBox="0 0 900 600" width="900" height="600" xmlns="http://www.w3.org/2000/svg" xmlns:xlink="http://www.w3.org/1999/xlink" version="1.1"><path d="M0 419L21.5 416.5C43 414 86 409 128.8 416.7C171.7 424.3 214.3 444.7 257.2 464.3C300 484 343 503 385.8 500.5C428.7 498 471.3 474 514.2 450.7C557 427.3 600 404.7 642.8 395.7C685.7 386.7 728.3 391.3 771.2 402C814 412.7 857 429.3 878.5 437.7L900 446L900 601L878.5 601C857 601 814 601 771.2 601C728.3 601 685.7 601 642.8 601C600 601 557 601 514.2 601C471.3 601 428.7 601 385.8 601C343 601 300 601 257.2 601C214.3 601 171.7 601 128.8 601C86 601 43 601 21.5 601L0 601Z" fill="#22A000" stroke-linecap="round" stroke-linejoin="miter"></path></svg>