<svg xmlns="http://www.w3.org/2000/svg" xmlns:xlink="http://www.w3.org/1999/xlink" viewBox="0 0 384.36 157.66"><defs><style>.cls-1{fill:none;}.cls-2{fill:#fdfdfd;}.cls-3{clip-path:url(#clip-path);}.cls-4{fill:#1f8536;}</style><clipPath id="clip-path" transform="translate(-2.35 -3.26)"><path class="cls-1" d="M374,84.37c-5.82.18-39.53,0-39.53,0l-3.7-2.53,6.82-7.35-1-.76L329.33,81l-1.92-1.32,8.3-9.24L334,70l-7.82,8.59a8.2,8.2,0,0,1-5.24,2.06l-8.11-.35v3.41l-3.59.65L310,73.84l-9.12-.7s.53-3,.12-3.53-1.59-.59-1.59-.59l2.18-3.7L299.18,64l-2.77,3.88-2.7.06-.35,4.12a26.7,26.7,0,0,0-3.71.65c0,.17.18,6.7.18,6.7s-4.47,0-4.53-.64.35-19.59.35-19.59l-12.12-.3s-.17-1.88-1.17-2.23-5.12,0-5.12,0-.94-3.06.12-3.65a12.2,12.2,0,0,1,1.7-.82l.12-2.12a5.86,5.86,0,0,1-3.41-1.18,20.13,20.13,0,0,0-2.53-2.06h-1.65a34.76,34.76,0,0,1-.71,4.53c-.23.24-2.05,2.12-1.7,2.47s2.94,1.24,3.06,1.59a8.94,8.94,0,0,1,.23,1.06l-.11.47-2.65,1.36s-7-.71-7.65-.53l-3.23.82-4.3-55.06L243,3.26,247.53,64s-5.35.18-6.94-1.18a5.52,5.52,0,0,1-2-4.94c.12-2,.35-10.17.35-10.17s-11.64,2.17-11.88,2.59-.7,14.29-.7,14.29l-2.89-.18L218,70.32l.24,14.41-10.47.41v-3s-16.83.35-17.12.23,5.23-6.05,5.23-6.05l-2-.59-3.89,2.7.42-4.64s-2.06,0-2.65-.53-2-3.18-1.88-10-.06-7.12-.06-7.12l-3.94-1.71-8.89,4.12s2.24,14.41,2.24,14.94-3.12-.17-3.12-.17a14.74,14.74,0,0,0,.06-3.42c-.24-.88-.29-1.11-.29-1.11l-2.36.88L168.71,72l-5.3.3-1.29,4.82-22.76.18,3.35-5.06-8-52.65-.94.29,6,45.18-4.83,1.59-.35,1.47-3.47-3.41-2.24,4.76-1,.35,1.82,4.53-5.41,1-.47-1.7.94-.41-.24-2.3-2.06-.23L122,73.49l.65.12v1.94l-1.94-.65-.77-2h-2.35l-1.53-2.08L115.65,76l-2.47-.35-.77,2.47-2,1.12.06,2.23-2.41.59-2.41,2.76-.88-2.35-2.36-1.23L102,76.55l-18.47-.12L83.77,82a1.94,1.94,0,0,1,1.76.53c.59.77.35,4,.35,4l-3.52,2.59-3.71-1.82V82.61L62,82.55,61,88.2l-2.76-2.33H50l-.7,4.68-3.18-1.18-.41-1.76-15.18-2-1.29-6-4.06.56L27,86.32l-24.14-.8s-.71,8.82-.4,9.88,3.48,7.5,3.48,7.5h9.27v39.27h6.7V112.43l21.36,29.74h6.64V102.79H60.12v39.38H89.36v-6.44H66.88V124.14H86.41v-6.35H66.83V106.73H88.65v-3.94h4.88L106,142.17h7.06l9.41-32.38,9.59,32.38,6.88-.27,12.59-39.11h11.88a19.09,19.09,0,0,0-10,12.53,22.59,22.59,0,0,0,1.89,16.23s3.29,7.41,13.82,10.35,20.06-6.53,20.06-6.53L185,130.79s-6.12,6-12.64,4.88a17.34,17.34,0,0,1-10.18-6s-3.47-5.59-2.3-11.18a16.6,16.6,0,0,1,4.89-8.7s5.23-4.47,11.17-3.18a16.56,16.56,0,0,1,9,5.18l4.24-5.24a25.55,25.55,0,0,0-2.59-2.12,30.57,30.57,0,0,0-2.76-1.64h23.23L190.53,142h6.88l4-9.53,20,.12,3.71,9.47,7.53.06-16.71-39.35h24.89a9,9,0,0,0-4.71,7.35c-.53,5.47,1.88,8,1.88,8s1.24,2.59,7.47,4.65,10,2.94,11.18,4.82a4.74,4.74,0,0,1,.94,3.12,4.22,4.22,0,0,1-2.29,3.7c-2.3,1-2.53,1.53-7.06.94a20.44,20.44,0,0,1-8.83-3.41c-.88-.64-2.82-2.53-2.82-2.53l-2.88,6.24s2.94,3.35,10.53,5.94,15.59-1.94,15.59-1.94,4.53-1.65,5.47-8.65-5.59-10.35-5.59-10.35a23.73,23.73,0,0,0-6.06-2.53,48.42,48.42,0,0,1-7.53-2.82s-3.53-2.3-2.18-5.77,7.47-2.71,7.47-2.71a25.57,25.57,0,0,1,7.3,2.12l3.06,1.59,3-6.12a7.12,7.12,0,0,0-1.83-1.17c-.82-.3-1.29-.53-1.29-.53H268v3.94h12.71V142h6.82V106.73h12.59v-3.89h6V142.2H330v-6.53H312.83V102.79h23.53V142h29.35v-6.35H342.94V124.32h19.83v-6.53H343.24v-11h21.53V102.9h7.41a64.33,64.33,0,0,0,9.7-12.11,80.2,80.2,0,0,0,4.83-9A51.47,51.47,0,0,1,374,84.37ZM43.3,130.67,23.36,102.84H43.3Zm66.17,3.65-8.82-31.53h17.82Zm26,0-8.7-31.53h17.82Zm83.41-8.06H203.71L211.3,108Z"/></clipPath></defs><title>ntm</title><g id="Calque_1" data-name="Calque 1"><path class="cls-2" d="M374,84.37c-5.82.18-39.53,0-39.53,0l-3.7-2.52,6.82-7.36-1-.76L329.33,81l-1.92-1.32,8.3-9.24L334,70l-7.82,8.59a8.2,8.2,0,0,1-5.24,2.06l-8.11-.35v3.41l-3.59.65L310,73.85l-9.12-.71s.53-3,.12-3.53-1.59-.59-1.59-.59l2.18-3.7L299.18,64l-2.77,3.88-2.7.06-.35,4.12a26.7,26.7,0,0,0-3.71.65c0,.17.18,6.7.18,6.7s-4.47,0-4.53-.64.35-19.59.35-19.59l-12.12-.3s-.17-1.88-1.17-2.23-5.12,0-5.12,0-.94-3.06.12-3.65a12.2,12.2,0,0,1,1.7-.82l.12-2.12a5.86,5.86,0,0,1-3.41-1.18,19.57,19.57,0,0,0-2.53-2h-1.65a34.62,34.62,0,0,1-.71,4.52c-.23.24-2.05,2.12-1.7,2.48s2.94,1.23,3.06,1.58a8.94,8.94,0,0,1,.23,1.06l-.11.47-2.65,1.36s-7-.71-7.65-.53l-3.23.82-4.3-55.06L243,3.26,247.53,64s-5.35.18-6.94-1.17a5.55,5.55,0,0,1-2-5c.12-2,.35-10.17.35-10.17s-11.64,2.17-11.88,2.59-.7,14.29-.7,14.29l-2.89-.18L218,70.32l.24,14.41-10.47.41v-3s-16.83.35-17.12.23,5.23-6.05,5.23-6.05l-2-.59-3.89,2.7.42-4.64s-2.06.06-2.65-.53-2-3.18-1.88-10-.06-7.12-.06-7.12l-3.94-1.71-8.89,4.12s2.24,14.41,2.24,14.94-3.12-.17-3.12-.17a14.74,14.74,0,0,0,.06-3.42c-.24-.88-.29-1.11-.29-1.11l-2.36.88L168.71,72l-5.3.3-1.29,4.82-22.76.18,3.35-5.06-8-52.65-.94.29,6,45.18-4.83,1.59-.35,1.47-3.47-3.41-2.24,4.76-1,.36,1.82,4.52-5.41,1-.47-1.7.94-.41-.24-2.3-2.06-.23L122,73.49l.65.12v1.94l-1.94-.65-.77-2h-2.35l-1.53-2.08L115.65,76l-2.47-.35-.77,2.47-2,1.12.06,2.23-2.41.59-2.41,2.77-.88-2.36-2.36-1.23L102,76.55l-18.47-.12L83.77,82a1.94,1.94,0,0,1,1.76.53c.59.77.35,4,.35,4l-3.52,2.59-3.71-1.82V82.61L62,82.55,61,88.2l-2.76-2.33H50l-.7,4.68-3.18-1.18-.41-1.76-15.18-2-1.29-6-4.06.56L27,86.32l-24.14-.8s-.71,8.83-.4,9.88,3.48,7.5,3.48,7.5h9.27v39.27h6.7V112.43l21.36,29.74h6.64V102.79H60.12v39.38H89.36v-6.44H66.88V124.14H86.41v-6.35H66.83V106.73H88.65v-3.94h4.88L106,142.17h7.06l9.41-32.38,9.59,32.38,6.88-.27,12.59-39.11h11.88a19.09,19.09,0,0,0-10,12.53,22.59,22.59,0,0,0,1.89,16.23s3.29,7.41,13.82,10.35,20.06-6.53,20.06-6.53L185,130.79s-6.12,6-12.64,4.88a17.34,17.34,0,0,1-10.18-6s-3.47-5.59-2.3-11.18a16.6,16.6,0,0,1,4.89-8.7s5.23-4.47,11.17-3.18a16.56,16.56,0,0,1,9,5.18l4.24-5.24a25.55,25.55,0,0,0-2.59-2.12,30.57,30.57,0,0,0-2.76-1.64h23.23L190.53,142h6.88l4-9.53,20,.12,3.71,9.47,7.53.06-16.71-39.35h24.89a9,9,0,0,0-4.71,7.35c-.53,5.47,1.88,8,1.88,8s1.24,2.59,7.47,4.65,10,2.94,11.18,4.82a4.74,4.74,0,0,1,.94,3.12,4.22,4.22,0,0,1-2.29,3.7c-2.3,1-2.53,1.53-7.06.94a20.44,20.44,0,0,1-8.83-3.41c-.88-.64-2.82-2.53-2.82-2.53l-2.88,6.24s2.94,3.35,10.53,5.94,15.59-1.94,15.59-1.94,4.53-1.65,5.47-8.65-5.59-10.35-5.59-10.35a24.14,24.14,0,0,0-6.06-2.53,48.42,48.42,0,0,1-7.53-2.82s-3.53-2.3-2.18-5.77,7.47-2.7,7.47-2.7a25.39,25.39,0,0,1,7.3,2.11l3.06,1.59,3-6.12a7.12,7.12,0,0,0-1.83-1.17c-.82-.3-1.29-.53-1.29-.53H268v3.94h12.71V142h6.82V106.73h12.59v-3.88h6V142.2H330v-6.53H312.83V102.79h23.53V142h29.35v-6.35H342.94V124.32h19.83v-6.53H343.24v-11h21.53V102.9h7.41a64.33,64.33,0,0,0,9.7-12.11,81,81,0,0,0,4.83-8.94A51.68,51.68,0,0,1,374,84.37ZM43.3,130.67,23.36,102.85H43.3Zm66.17,3.65-8.82-31.53h17.82Zm26,0-8.7-31.53h17.82Zm83.41-8.06H203.71L211.3,108Z" transform="translate(-2.35 -3.26)"/><g class="cls-3"><path class="cls-4" d="M11,117s12.26-1.94,22.79-.17,25.78,8.29,30.06,10.81,13.18,6.07,23,4.42,22.71-4,29.83-10.64,17.14-12.89,21.47-12.62,7.94.17,17.11,7.76,9.12,11.33,15.89,13.5,14.17.77,18.58-2.64,12.83-7.77,16-7.89A14.75,14.75,0,0,1,218.94,126c4.24,6.12,11.47,5.77,13.24,4.53s4.94-4,10.11-2.7,7.64.94,8.43,1.42a26.7,26.7,0,0,0,8.74,3.49,24,24,0,0,0,6.88.7s16.54,4.21,23.48-11.73,42.3-1.59,45.47,0,4.33,3.88,9.09,2.91,14.3-9.71,15.44-12.26,10.15-6.64,12-3.63.53,12.08.53,12.08-.79,12.81-1,14.05S366,152.81,366,152.81l-184.94,8.11-170-13Z" transform="translate(-2.35 -3.26)"/></g><rect class="cls-4" x="162.37" y="88.31" width="6.13" height="0.62"/><rect class="cls-4" x="161.28" y="93.81" width="8.24" height="0.68"/><polygon class="cls-4" points="171.83 89.62 171.83 90.2 175.66 90.2 175.13 94.25 171.05 94.25 171.05 94.81 177.85 94.81 177.85 94.22 175.74 94.22 176.33 89.79 176.02 89.62 171.83 89.62"/><polygon class="cls-4" points="179.41 90.71 179.41 91.59 179.73 91.41 187.63 91.41 187.63 90.71 179.41 90.71"/><path class="cls-4" d="M191.67,92.4v.67h2.73a6.54,6.54,0,0,1-1.22,3.25,6.35,6.35,0,0,1-1.84,2l.51.43a8.69,8.69,0,0,0,2.46-3.11c.93-2,.81-2.6.81-2.6h3.24a23.53,23.53,0,0,1-.33,3.72c-.31,1.31-.8,1.29-.8,1.29A3.42,3.42,0,0,1,196,98l-.71-.18v.7a11.33,11.33,0,0,0,2,.19c.88,0,1.2-1,1.2-1a15.79,15.79,0,0,0,.59-3.18c.1-1.6.1-2,.1-2l-.43-.11h-3.41s.19-1,.21-1.37,0-.51,0-.51l.29-.2-1-.13a9.41,9.41,0,0,1-.08,1.68l-.11.53Z" transform="translate(-2.35 -3.26)"/><path class="cls-4" d="M209.94,90.85h5.49l.48.3s-.8,1.61-1.14,2.13-1,1.39-1,1.39,1.42,1.25,2.25,2a17.88,17.88,0,0,1,1.37,1.41l-.54.46s-1.29-1.35-2-2-1.51-1.31-1.51-1.31a17.54,17.54,0,0,1-2.59,2.54l-1.24.81-.48-.47a15.82,15.82,0,0,0,3.84-3.33,24.14,24.14,0,0,0,2-3.21h-5Z" transform="translate(-2.35 -3.26)"/><path class="cls-4" d="M223,90.44v7.5l.44.56.13-.24a7.26,7.26,0,0,0,2.5-1.79,8.64,8.64,0,0,0,1.53-2.68l-.59-.34a7.61,7.61,0,0,1-1.6,2.81,8.24,8.24,0,0,1-1.69,1.18V90.65l.22-.21Z" transform="translate(-2.35 -3.26)"/><path class="cls-4" d="M201.26,93a8.29,8.29,0,0,1,.56,1.34,2.92,2.92,0,0,1,.14.73l.57-.14a6.78,6.78,0,0,0-.46-1.51c-.28-.53-.31-.6-.31-.6Z" transform="translate(-2.35 -3.26)"/><path class="cls-4" d="M203.62,92.46s.29.94.41,1.52a1.9,1.9,0,0,1,.09.71l.58-.14a11.79,11.79,0,0,0-.28-1.53,7,7,0,0,0-.26-.65Z" transform="translate(-2.35 -3.26)"/><path class="cls-4" d="M207,92.68a9.05,9.05,0,0,1-1.59,3.52,4.83,4.83,0,0,1-1.58,1.34,9.61,9.61,0,0,1-1,.56l-.28.09.42.46a8.16,8.16,0,0,0,2.83-2,10.47,10.47,0,0,0,1.41-2.44l.39-1.22.22-.1-.71-.17" transform="translate(-2.35 -3.26)"/><path class="cls-4" d="M220.12,91.62a18.59,18.59,0,0,1-.27,3.79,7.05,7.05,0,0,1-.91,2.41l-.5.58.56.36a8,8,0,0,0,1.46-3,28,28,0,0,0,.38-3.87l.25-.2Z" transform="translate(-2.35 -3.26)"/></g></svg>