<svg id="svg" version="1.1" xmlns="http://www.w3.org/2000/svg" xmlns:xlink="http://www.w3.org/1999/xlink" width="400" height="400" viewBox="0, 0, 400,400"><g id="svgg"><path id="path0" d="M-0.000 1.875 L -0.000 3.800 198.100 201.900 L 396.200 400.000 398.100 400.000 C 402.493 400.000,416.481 414.280,201.206 198.999 C -13.823 -16.035,0.000 -2.493,-0.000 1.875 M8.800 0.300 C 8.800 0.465,96.055 87.855,202.700 194.500 L 396.600 388.400 398.324 388.400 L 400.048 388.400 399.924 386.995 C 399.810 385.708,383.496 369.286,207.001 192.795 L 14.202 0.000 11.501 0.000 C 10.015 0.000,8.800 0.135,8.800 0.300 M21.600 0.300 C 21.600 0.704,399.314 378.400,399.718 378.400 C 399.892 378.400,399.982 377.139,399.918 375.597 L 399.800 372.794 213.401 186.397 L 27.002 0.000 24.301 0.000 C 22.816 0.000,21.600 0.135,21.600 0.300 M35.200 0.300 C 35.200 0.704,399.314 364.800,399.718 364.800 C 399.892 364.800,399.982 363.539,399.918 361.997 L 399.800 359.194 220.201 179.597 L 40.602 0.000 37.901 0.000 C 36.416 0.000,35.200 0.135,35.200 0.300 M48.000 0.300 C 48.000 0.704,399.314 352.000,399.718 352.000 C 399.892 352.000,399.982 350.739,399.918 349.197 L 399.800 346.394 226.601 173.197 L 53.403 0.000 50.701 0.000 C 49.216 0.000,48.000 0.135,48.000 0.300 M61.600 0.300 C 61.600 0.704,399.314 338.400,399.718 338.400 C 399.892 338.400,399.982 337.139,399.918 335.597 L 399.800 332.794 233.401 166.397 L 67.003 0.000 64.301 0.000 C 62.816 0.000,61.600 0.135,61.600 0.300 M74.400 0.300 C 74.400 0.704,399.314 325.600,399.718 325.600 C 399.892 325.600,399.982 324.339,399.918 322.797 L 399.800 319.994 239.802 159.997 L 79.803 -0.000 77.102 -0.000 C 75.616 -0.000,74.400 0.135,74.400 0.300 M88.000 0.300 C 88.000 0.704,399.314 312.000,399.718 312.000 C 399.892 312.000,399.982 310.739,399.918 309.197 L 399.800 306.394 246.602 153.197 L 93.403 0.000 90.702 0.000 C 89.216 0.000,88.000 0.135,88.000 0.300 M100.800 0.300 C 100.800 0.704,399.314 299.200,399.718 299.200 C 399.892 299.200,399.982 297.939,399.918 296.397 L 399.800 293.595 253.002 146.797 L 106.204 0.000 103.502 0.000 C 102.016 0.000,100.800 0.135,100.800 0.300 M114.400 0.300 C 114.400 0.704,399.314 285.600,399.718 285.600 C 399.892 285.600,399.982 284.339,399.918 282.797 L 399.800 279.993 259.801 139.997 L 119.803 0.000 117.101 0.000 C 115.616 0.000,114.400 0.135,114.400 0.300 M127.200 0.300 C 127.200 0.704,399.314 272.800,399.718 272.800 C 399.892 272.800,399.982 271.539,399.918 269.997 L 399.800 267.193 266.202 133.597 L 132.603 0.000 129.902 0.000 C 128.416 0.000,127.200 0.135,127.200 0.300 M140.800 0.300 C 140.800 0.704,399.314 259.200,399.718 259.200 C 399.892 259.200,399.982 257.939,399.918 256.397 L 399.800 253.594 273.002 126.797 L 146.204 0.000 143.502 0.000 C 142.016 0.000,140.800 0.135,140.800 0.300 M153.600 0.300 C 153.600 0.704,399.314 246.400,399.718 246.400 C 399.892 246.400,399.982 245.139,399.918 243.597 L 399.800 240.794 279.402 120.397 L 159.004 -0.000 156.302 -0.000 C 154.816 -0.000,153.600 0.135,153.600 0.300 M167.200 0.300 C 167.200 0.704,399.314 232.800,399.718 232.800 C 399.892 232.800,399.982 231.539,399.918 229.997 L 399.800 227.194 286.202 113.597 L 172.605 0.000 169.902 0.000 C 168.416 0.000,167.200 0.135,167.200 0.300 M180.000 0.300 C 180.000 0.704,399.314 220.000,399.718 220.000 C 399.892 220.000,399.982 218.739,399.918 217.197 L 399.800 214.394 292.603 107.197 L 185.405 0.000 182.703 0.000 C 181.216 0.000,180.000 0.135,180.000 0.300 M193.600 0.300 C 193.600 0.704,399.314 206.400,399.718 206.400 C 399.892 206.400,399.982 205.139,399.918 203.597 L 399.800 200.795 299.403 100.397 L 199.006 0.000 196.303 0.000 C 194.816 0.000,193.600 0.135,193.600 0.300 M206.400 0.300 C 206.400 0.704,399.314 193.600,399.718 193.600 C 399.892 193.600,399.982 192.339,399.918 190.797 L 399.800 187.993 305.802 93.997 L 211.803 0.000 209.102 0.000 C 207.616 0.000,206.400 0.135,206.400 0.300 M218.400 0.283 C 218.400 0.687,399.297 181.600,399.700 181.600 C 399.865 181.600,400.000 180.384,400.000 178.897 L 400.000 176.195 312.002 88.197 L 224.003 0.200 221.202 0.082 C 219.661 0.018,218.400 0.108,218.400 0.283 M231.200 0.283 C 231.200 0.687,399.297 168.800,399.700 168.800 C 399.865 168.800,400.000 167.584,400.000 166.097 L 400.000 163.394 318.402 81.797 L 236.803 0.200 234.002 0.082 C 232.461 0.018,231.200 0.108,231.200 0.283 M244.800 0.283 C 244.800 0.687,399.297 155.200,399.700 155.200 C 399.865 155.200,400.000 153.984,400.000 152.497 L 400.000 149.794 325.202 74.997 L 250.403 0.200 247.602 0.082 C 246.061 0.018,244.800 0.108,244.800 0.283 M257.600 0.283 C 257.600 0.687,399.297 142.400,399.700 142.400 C 399.865 142.400,400.000 141.183,400.000 139.697 L 400.000 136.993 331.601 68.597 L 263.203 0.200 260.401 0.082 C 258.861 0.018,257.600 0.108,257.600 0.283 M271.200 0.283 C 271.200 0.687,399.297 128.800,399.700 128.800 C 399.865 128.800,400.000 127.583,400.000 126.096 L 400.000 123.393 338.401 61.796 L 276.803 0.200 274.001 0.082 C 272.461 0.018,271.200 0.108,271.200 0.283 M284.000 0.283 C 284.000 0.687,399.297 116.000,399.701 116.000 C 399.865 116.000,400.000 114.783,400.000 113.296 L 400.000 110.592 344.801 55.396 L 289.603 0.200 286.801 0.082 C 285.261 0.018,284.000 0.108,284.000 0.283 M297.600 0.283 C 297.600 0.687,399.297 102.400,399.701 102.400 C 399.865 102.400,400.000 101.183,400.000 99.695 L 400.000 96.991 351.601 48.595 L 303.202 0.200 300.401 0.082 C 298.860 0.018,297.600 0.108,297.600 0.283 M310.400 0.283 C 310.400 0.687,399.297 89.600,399.701 89.600 C 399.865 89.600,400.000 88.383,400.000 86.895 L 400.000 84.189 358.001 42.195 L 316.002 0.200 313.201 0.082 C 311.660 0.018,310.400 0.108,310.400 0.283 M324.000 0.301 C 324.000 0.693,399.309 76.000,399.701 76.000 C 399.865 76.000,400.000 74.785,400.000 73.299 L 400.000 70.598 364.699 35.299 L 329.398 0.000 326.699 0.000 C 325.215 0.000,324.000 0.135,324.000 0.301 M336.800 0.301 C 336.800 0.693,399.309 63.200,399.701 63.200 C 399.865 63.200,400.000 61.985,400.000 60.499 L 400.000 57.798 371.099 28.899 L 342.198 0.000 339.499 0.000 C 338.015 0.000,336.800 0.135,336.800 0.301 M350.400 0.301 C 350.400 0.693,399.309 49.600,399.701 49.600 C 399.866 49.600,400.000 48.386,400.000 46.901 L 400.000 44.203 377.901 22.101 L 355.803 0.000 353.101 0.000 C 351.616 0.000,350.400 0.136,350.400 0.301 M363.200 0.302 C 363.200 0.694,399.309 36.800,399.702 36.800 C 399.866 36.800,400.000 35.584,400.000 34.098 L 400.000 31.396 384.298 15.698 L 368.596 0.000 365.898 0.000 C 364.414 0.000,363.200 0.136,363.200 0.302 M376.800 0.303 C 376.800 0.695,399.310 23.200,399.703 23.200 C 399.866 23.200,400.000 21.983,400.000 20.497 L 400.000 17.793 391.097 8.897 L 382.193 0.000 379.497 0.000 C 378.014 0.000,376.800 0.136,376.800 0.303 M389.600 0.306 C 389.600 0.698,399.314 10.400,399.706 10.400 C 399.868 10.400,400.000 9.180,400.000 7.688 L 400.000 4.977 397.489 2.488 L 394.978 0.000 392.289 0.000 C 390.810 0.000,389.600 0.138,389.600 0.306 M0.000 13.867 L 0.000 16.600 191.700 208.300 L 383.400 400.000 386.100 400.000 C 387.585 400.000,388.800 399.865,388.800 399.699 C 388.800 399.327,0.958 11.453,0.401 11.267 C 0.159 11.186,0.000 12.218,0.000 13.867 M0.000 27.467 L 0.000 30.200 184.900 215.100 L 369.800 400.000 372.500 400.000 C 373.985 400.000,375.200 399.864,375.200 399.699 C 375.200 399.327,0.958 25.053,0.401 24.867 C 0.159 24.786,0.000 25.818,0.000 27.467 M0.000 40.267 L 0.000 43.000 178.500 221.500 L 357.000 400.000 359.700 400.000 C 361.185 400.000,362.400 399.864,362.400 399.699 C 362.400 399.327,0.958 37.853,0.401 37.667 C 0.159 37.586,0.000 38.619,0.000 40.267 M-0.000 53.867 L -0.000 56.600 171.700 228.300 L 343.400 400.000 346.100 400.000 C 347.585 400.000,348.800 399.864,348.800 399.699 C 348.800 399.327,0.958 51.453,0.401 51.267 C 0.159 51.186,-0.000 52.219,-0.000 53.867 M0.000 66.667 L 0.000 69.400 165.300 234.700 L 330.600 400.000 333.300 400.000 C 334.785 400.000,336.000 399.864,336.000 399.699 C 336.000 399.327,0.958 64.253,0.401 64.067 C 0.159 63.986,0.000 65.019,0.000 66.667 M0.000 80.267 L 0.000 83.000 158.500 241.500 L 317.000 400.000 319.700 400.000 C 321.185 400.000,322.400 399.864,322.400 399.698 C 322.400 399.327,0.958 77.853,0.401 77.667 C 0.159 77.586,0.000 78.620,0.000 80.267 M-0.000 93.067 L -0.000 95.800 152.100 247.900 L 304.200 400.000 306.900 400.000 C 308.385 400.000,309.600 399.864,309.600 399.698 C 309.600 399.326,0.958 90.653,0.400 90.467 C 0.159 90.386,-0.000 91.420,-0.000 93.067 M-0.000 106.667 L -0.000 109.400 145.300 254.700 L 290.600 400.000 293.300 400.000 C 294.785 400.000,296.000 399.864,296.000 399.699 C 296.000 399.327,0.959 104.253,0.401 104.067 C 0.159 103.986,-0.000 105.017,-0.000 106.667 M-0.000 119.467 L -0.000 122.200 138.900 261.100 L 277.800 400.000 280.500 400.000 C 281.985 400.000,283.200 399.864,283.200 399.699 C 283.200 399.327,0.959 117.053,0.401 116.867 C 0.159 116.786,-0.000 117.817,-0.000 119.467 M0.000 133.067 L 0.000 135.800 132.100 267.900 L 264.200 400.000 266.900 400.000 C 268.385 400.000,269.600 399.864,269.600 399.698 C 269.600 399.326,0.959 130.653,0.401 130.467 C 0.159 130.386,0.000 131.417,0.000 133.067 M0.000 145.867 L 0.000 148.600 125.700 274.300 L 251.400 400.000 254.100 400.000 C 255.585 400.000,256.800 399.864,256.800 399.698 C 256.800 399.326,0.959 143.453,0.401 143.267 C 0.159 143.186,0.000 144.218,0.000 145.867 M0.000 159.467 L 0.000 162.201 118.900 281.100 L 237.801 400.000 240.500 400.000 C 241.985 400.000,243.200 399.864,243.200 399.698 C 243.200 399.326,0.959 157.053,0.401 156.867 C 0.159 156.786,0.000 157.819,0.000 159.467 M-0.000 172.267 L -0.000 175.001 112.500 287.500 L 225.001 400.000 227.700 400.000 C 229.185 400.000,230.400 399.864,230.400 399.698 C 230.400 399.325,0.959 169.853,0.401 169.667 C 0.159 169.586,-0.000 170.619,-0.000 172.267 M-0.000 185.867 L -0.000 188.601 105.700 294.300 L 211.401 400.000 214.100 400.000 C 215.585 400.000,216.800 399.864,216.800 399.697 C 216.800 399.325,0.959 183.453,0.400 183.267 C 0.159 183.186,-0.000 184.220,-0.000 185.867 M0.000 198.667 L 0.000 201.401 99.300 300.700 L 198.601 400.000 201.300 400.000 C 202.785 400.000,204.000 399.864,204.000 399.697 C 204.000 399.324,0.959 196.253,0.400 196.067 C 0.159 195.986,0.000 197.022,0.000 198.667 M0.000 210.667 L 0.000 213.401 93.300 306.700 L 186.601 400.000 189.300 400.000 C 190.785 400.000,192.000 399.864,192.000 399.697 C 192.000 399.324,0.959 208.253,0.400 208.067 C 0.159 207.986,0.000 209.021,0.000 210.667 M-0.000 223.500 L -0.000 226.199 86.900 313.100 L 173.799 400.000 176.533 400.000 C 178.175 400.000,179.213 399.841,179.133 399.601 C 178.947 399.043,0.674 220.800,0.302 220.800 C 0.136 220.800,-0.000 222.015,-0.000 223.500 M0.000 237.100 L 0.000 239.801 80.100 319.900 L 160.201 400.000 162.934 400.000 C 164.575 400.000,165.613 399.840,165.533 399.601 C 165.347 399.043,0.675 234.400,0.303 234.400 C 0.136 234.400,0.000 235.615,0.000 237.100 M-0.000 249.900 L -0.000 252.601 73.700 326.300 L 147.401 400.000 150.134 400.000 C 151.775 400.000,152.813 399.840,152.733 399.601 C 152.547 399.042,0.675 247.200,0.303 247.200 C 0.136 247.200,-0.000 248.415,-0.000 249.900 M0.000 263.500 L 0.000 266.201 66.900 333.100 L 133.801 400.000 136.534 400.000 C 138.175 400.000,139.213 399.840,139.133 399.601 C 138.947 399.042,0.675 260.800,0.303 260.800 C 0.136 260.800,0.000 262.015,0.000 263.500 M0.000 276.300 L 0.000 279.001 60.500 339.500 L 121.001 400.000 123.734 400.000 C 125.375 400.000,126.413 399.840,126.333 399.601 C 126.147 399.042,0.676 273.600,0.303 273.600 C 0.137 273.600,0.000 274.815,0.000 276.300 M-0.000 289.901 L -0.000 292.601 53.701 346.301 L 107.401 400.000 110.134 400.000 C 111.774 400.000,112.813 399.840,112.733 399.601 C 112.547 399.042,0.676 287.200,0.304 287.200 C 0.137 287.200,-0.000 288.415,-0.000 289.901 M-0.000 302.701 L -0.000 305.401 47.301 352.701 L 94.601 400.000 97.334 400.000 C 98.974 400.000,100.013 399.840,99.933 399.601 C 99.746 399.041,0.677 300.000,0.304 300.000 C 0.137 300.000,-0.000 301.215,-0.000 302.701 M-0.000 316.301 L -0.000 319.001 40.501 359.501 L 81.001 400.000 83.701 400.000 C 85.185 400.000,86.400 399.865,86.400 399.699 C 86.400 399.307,0.692 313.600,0.299 313.600 C 0.135 313.600,-0.000 314.815,-0.000 316.301 M0.000 329.101 L 0.000 331.802 34.101 365.901 L 68.202 400.000 70.901 400.000 C 72.385 400.000,73.600 399.865,73.600 399.699 C 73.600 399.307,0.691 326.400,0.299 326.400 C 0.135 326.400,0.000 327.615,0.000 329.101 M0.000 342.701 L 0.000 345.402 27.301 372.701 L 54.602 400.000 57.301 400.000 C 58.785 400.000,60.000 399.865,60.000 399.699 C 60.000 399.307,0.691 340.000,0.299 340.000 C 0.135 340.000,0.000 341.215,0.000 342.701 M0.000 355.499 L 0.000 358.197 20.899 379.099 L 41.797 400.000 44.499 400.000 C 45.984 400.000,47.200 399.864,47.200 399.699 C 47.200 399.306,0.691 352.800,0.299 352.800 C 0.134 352.800,0.000 354.014,0.000 355.499 M0.000 369.102 L 0.000 371.804 14.102 385.902 L 28.204 400.000 30.902 400.000 C 32.386 400.000,33.600 399.864,33.600 399.698 C 33.600 399.306,0.690 366.400,0.298 366.400 C 0.134 366.400,0.000 367.616,0.000 369.102 M0.000 381.896 L 0.000 384.592 7.696 392.296 L 15.392 400.000 18.096 400.000 C 19.583 400.000,20.800 399.866,20.800 399.703 C 20.800 399.311,0.695 379.200,0.303 379.200 C 0.136 379.200,0.000 380.413,0.000 381.896 M-0.000 395.530 C -0.000 399.256,0.754 400.000,4.526 400.000 C 7.868 400.000,7.877 400.055,3.892 396.091 C -0.099 392.122,0.000 392.136,-0.000 395.530 " stroke="none" fill="#34ec04" fill-rule="evenodd"></path><path id="path1" d="" stroke="none" fill="#38ec04" fill-rule="evenodd"></path><path id="path2" d="" stroke="none" fill="#38ec04" fill-rule="evenodd"></path><path id="path3" d="" stroke="none" fill="#38ec04" fill-rule="evenodd"></path><path id="path4" d="" stroke="none" fill="#38ec04" fill-rule="evenodd"></path></g></svg>