<svg width="183" height="147" viewBox="0 0 183 147" fill="none" xmlns="http://www.w3.org/2000/svg">
<path d="M44.1637 -29.7996C1.30712 -2.58265 -12.3556 55.8502 13.6496 100.704C39.6548 145.557 95.4861 159.857 138.343 132.64C181.199 105.423 194.862 46.9899 168.857 2.13634C142.852 -42.7172 87.0203 -57.0165 44.1637 -29.7996ZM130.494 119.103C94.8356 141.749 48.2212 129.81 26.5835 92.4898C4.94592 55.1694 16.3531 6.38289 52.0119 -16.263C87.6708 -38.9088 134.285 -26.9701 155.923 10.3503C177.56 47.6707 166.153 96.4572 130.494 119.103ZM56.7209 -8.14101C25.3367 11.7901 15.3001 54.7149 34.3439 87.5614C53.3877 120.408 94.4013 130.912 125.785 110.981C157.17 91.05 167.206 48.1253 148.162 15.2787C129.119 -17.5679 88.1051 -28.0722 56.7209 -8.14101ZM115.779 93.722C111.323 96.5517 105.498 95.0654 102.79 90.3953C100.082 85.7252 101.513 79.6309 105.969 76.8012C110.437 73.9633 116.25 75.4577 118.958 80.1279C121.665 84.798 120.248 90.884 115.779 93.722ZM105.198 45.5457C103.178 55.8575 105.015 59.6822 107.699 64.1271L94.7323 72.3615C88.899 62.407 86.5229 57.8968 90.3842 43.0079C91.9485 36.9767 93.1803 32.2032 89.4596 26.7319C85.9256 21.5216 79.9277 21.432 75.8276 24.0359C71.2426 26.9477 67.9495 33.9193 73.7807 43.977L60.7756 52.2361C51.3578 35.9922 54.3938 19.7105 68.4918 10.7573C75.1915 6.50245 82.3809 5.07598 88.7365 6.74411C94.6908 8.31521 99.7143 12.4777 103.277 18.7903C108.588 28.2248 106.712 37.8244 105.198 45.5457Z" fill="#125700"/>
</svg>
